<?xml version="1.0" encoding="UTF-8" standalone="no"?>
<!-- Created with Inkscape (http://www.inkscape.org/) -->

<svg
   xmlns:dc="http://purl.org/dc/elements/1.1/"
   xmlns:cc="http://creativecommons.org/ns#"
   xmlns:rdf="http://www.w3.org/1999/02/22-rdf-syntax-ns#"
   xmlns:svg="http://www.w3.org/2000/svg"
   xmlns="http://www.w3.org/2000/svg"
   xmlns:sodipodi="http://sodipodi.sourceforge.net/DTD/sodipodi-0.dtd"
   xmlns:inkscape="http://www.inkscape.org/namespaces/inkscape"
   width="744.09448819"
   height="1052.3622047"
   id="svg3054"
   version="1.1"
   inkscape:version="0.48.1 r9760"
   sodipodi:docname="space-and-cover.svg">
  <defs
     id="defs3056" />
  <sodipodi:namedview
     id="base"
     pagecolor="#ffffff"
     bordercolor="#666666"
     borderopacity="1.0"
     inkscape:pageopacity="0.0"
     inkscape:pageshadow="2"
     inkscape:zoom="0.35"
     inkscape:cx="375"
     inkscape:cy="748.57143"
     inkscape:document-units="px"
     inkscape:current-layer="layer1"
     showgrid="false"
     inkscape:window-width="508"
     inkscape:window-height="506"
     inkscape:window-x="1"
     inkscape:window-y="64"
     inkscape:window-maximized="0" />
  <metadata
     id="metadata3059">
    <rdf:RDF>
      <cc:Work
         rdf:about="">
        <dc:format>image/svg+xml</dc:format>
        <dc:type
           rdf:resource="http://purl.org/dc/dcmitype/StillImage" />
        <dc:title></dc:title>
      </cc:Work>
    </rdf:RDF>
  </metadata>
  <g
     inkscape:label="Layer 1"
     inkscape:groupmode="layer"
     id="layer1">
    <g
       transform="matrix(1.25,0,0,-1.25,-0.29339286,1051.0087)"
       id="g12">
      <g
         id="g14"
         transform="matrix(0.9878,0,0,-1,0,841.88977)">
        <path
           inkscape:connector-curvature="0"
           d="m 172.839,54.867 70.75,0.258"
           style="fill:#000000;fill-opacity:1;fill-rule:nonzero;stroke:#1a1a1a;stroke-width:4.58807278;stroke-linecap:butt;stroke-linejoin:miter;stroke-miterlimit:4;stroke-opacity:1;stroke-dasharray:none"
           id="path16" />
      </g>
      <g
         id="g18"
         transform="matrix(0.9878,0,0,-1,0,841.88977)">
        <path
           inkscape:connector-curvature="0"
           d="m 100.658,54.402 70.75,0.258"
           style="fill:#4d4d4d;fill-opacity:1;fill-rule:nonzero;stroke:#1a1a1a;stroke-width:4.58807278;stroke-linecap:butt;stroke-linejoin:miter;stroke-miterlimit:4;stroke-opacity:1;stroke-dasharray:none"
           id="path20" />
      </g>
      <g
         id="g22"
         transform="matrix(0.9878,0,0,-1,0,841.88977)">
        <path
           inkscape:connector-curvature="0"
           d="m 26.875,53.051 70.754,0.258"
           style="fill:#4d4d4d;fill-opacity:1;fill-rule:nonzero;stroke:#1a1a1a;stroke-width:4.58807278;stroke-linecap:butt;stroke-linejoin:miter;stroke-miterlimit:4;stroke-opacity:1;stroke-dasharray:none"
           id="path24" />
      </g>
      <g
         id="g26"
         transform="matrix(-0.0961716,-0.974694,-1,0.0740552,0,841.88977)">
        <path
           inkscape:connector-curvature="0"
           d="m 60.993,-108.452 c 0,6.442 -5.667,11.666 -12.652,11.666 -6.989,0.001 -12.656,-5.224 -12.657,-11.669 -10e-4,-6.442 5.666,-11.666 12.656,-11.663 6.989,0 12.652,5.221 12.653,11.666 z"
           style="fill:#b6d770;fill-opacity:1;fill-rule:nonzero;stroke:#1a1a1a;stroke-width:5.22184706;stroke-linecap:butt;stroke-linejoin:miter;stroke-miterlimit:4;stroke-opacity:1;stroke-dasharray:none"
           id="path28" />
      </g>
      <g
         id="g30"
         transform="matrix(0.112951,0.974694,1,-0.0869755,0,841.88977)">
        <path
           inkscape:connector-curvature="0"
           d="m -40.56,37.968 c 0.001,6.433 -5.657,11.651 -12.635,11.65 -6.981,-0.001 -12.64,-5.213 -12.638,-11.651 -0.001,-6.433 5.658,-11.647 12.635,-11.65 6.981,0.001 12.637,5.218 12.638,11.651 z"
           style="fill:#b6d770;fill-opacity:1;fill-rule:nonzero;stroke:#1a1a1a;stroke-width:5.21467686;stroke-linecap:butt;stroke-linejoin:miter;stroke-miterlimit:4;stroke-opacity:1;stroke-dasharray:none"
           id="path32" />
      </g>
      <g
         id="g34"
         transform="matrix(-0.0961716,-0.974694,-1,0.0740552,0,841.88977)">
        <path
           inkscape:connector-curvature="0"
           d="m 50.739,-243.411 c 0,6.441 -5.667,11.666 -12.652,11.666 -6.989,0 -12.656,-5.224 -12.657,-11.666 -0.001,-6.445 5.666,-11.666 12.656,-11.666 6.989,0 12.656,5.221 12.653,11.666 z"
           style="fill:#b6d770;fill-opacity:1;fill-rule:nonzero;stroke:#1a1a1a;stroke-width:5.22184706;stroke-linecap:butt;stroke-linejoin:miter;stroke-miterlimit:4;stroke-opacity:1;stroke-dasharray:none"
           id="path36" />
      </g>
      <g
         id="g38"
         transform="matrix(0.112951,0.974694,1,-0.0869755,0,841.88977)">
        <path
           inkscape:connector-curvature="0"
           d="m -27.868,180.206 c 0.002,6.438 -5.657,11.651 -12.634,11.65 -6.981,0.003 -12.641,-5.213 -12.638,-11.647 -10e-4,-6.437 5.657,-11.651 12.635,-11.65 6.981,-0.003 12.636,5.214 12.637,11.647 z"
           style="fill:#b6d770;fill-opacity:1;fill-rule:nonzero;stroke:#1a1a1a;stroke-width:5.21467686;stroke-linecap:butt;stroke-linejoin:miter;stroke-miterlimit:4;stroke-opacity:1;stroke-dasharray:none"
           id="path40" />
      </g>
      <g
         id="g42"
         transform="matrix(1,0,0,-0.727676,0,841.88977)">
        <path
           inkscape:connector-curvature="0"
           d="m 197.684,71.648 c 0,31.559 -42.075,57.144 -93.973,57.144 -51.899,0 -93.969,-25.585 -93.969,-57.144 0,-31.554 42.07,-57.138 93.969,-57.138 51.898,0 93.973,25.584 93.973,57.138 z"
           style="fill:none;stroke:#8fa6d7;stroke-width:6.596838;stroke-linecap:butt;stroke-linejoin:round;stroke-miterlimit:4;stroke-opacity:0.97807001;stroke-dasharray:none"
           id="path44" />
      </g>
      <g
         id="g46"
         transform="matrix(1,0,0,-0.727676,0,841.88977)">
        <path
           inkscape:connector-curvature="0"
           d="m 266.156,71.584 c 0,31.559 -42.074,57.138 -93.968,57.138 -51.899,0 -93.973,-25.579 -93.973,-57.138 0,-31.559 42.074,-57.138 93.973,-57.138 51.894,0 93.968,25.579 93.968,57.138 z"
           style="fill:none;stroke:#dab1ef;stroke-width:6.596838;stroke-linecap:butt;stroke-linejoin:round;stroke-miterlimit:4;stroke-opacity:1;stroke-dasharray:none"
           id="path48" />
      </g>
    </g>
  </g>
</svg>
